<svg width="20" height="20" viewBox="0 0 20 20" fill="none" xmlns="http://www.w3.org/2000/svg">
<path d="M7.50008 18.3333C7.96032 18.3333 8.33341 17.9602 8.33341 17.5C8.33341 17.0397 7.96032 16.6666 7.50008 16.6666C7.03984 16.6666 6.66675 17.0397 6.66675 17.5C6.66675 17.9602 7.03984 18.3333 7.50008 18.3333Z" stroke="#2A5CF6" stroke-width="1.66" stroke-linecap="round" stroke-linejoin="round"/>
<path d="M16.6666 18.3333C17.1268 18.3333 17.4999 17.9602 17.4999 17.5C17.4999 17.0397 17.1268 16.6666 16.6666 16.6666C16.2063 16.6666 15.8333 17.0397 15.8333 17.5C15.8333 17.9602 16.2063 18.3333 16.6666 18.3333Z" fill="#2A5CF6" stroke="#2A5CF6" stroke-width="1.66" stroke-linecap="round" stroke-linejoin="round"/>
<path d="M6.39992 11.9916L5.00054 4.99998H19.1666L17.8333 11.9916C17.757 12.3753 17.5483 12.7199 17.2436 12.9652C16.9389 13.2105 16.5577 13.3408 16.1666 13.3333H8.06659C7.6755 13.3408 7.29424 13.2105 6.98954 12.9652C6.68484 12.7199 6.47612 12.3753 6.39992 11.9916Z" fill="#2A5CF6"/>
<path d="M0.833252 0.833313H4.16658L6.39992 11.9916C6.47612 12.3753 6.68484 12.7199 6.98954 12.9652C7.29424 13.2105 7.6755 13.3408 8.06658 13.3333H16.1666C16.5577 13.3408 16.9389 13.2105 17.2436 12.9652C17.5483 12.7199 17.757 12.3753 17.8333 11.9916L19.1666 4.99998H4.99992" stroke="#2A5CF6" stroke-width="1.66" stroke-linecap="round" stroke-linejoin="round"/>
</svg>
