<svg width="40" height="40" viewBox="0 0 40 40" fill="none" xmlns="http://www.w3.org/2000/svg">
<g clip-path="url(#clip0_156_98)">
<path d="M18.8903 9.42907L20.0006 10.7329L21.1109 9.42907C22.6598 7.61015 25.0422 6.45858 27.5006 6.45858C31.8285 6.45858 35.2089 9.83899 35.2089 14.1669C35.2089 16.8379 34.0209 19.3753 31.6322 22.2957C29.2268 25.2365 25.7587 28.385 21.4377 32.3033L21.4356 32.3052L19.9969 33.6149L18.5647 32.321C18.5642 32.3205 18.5638 32.3201 18.5633 32.3197C14.2426 28.3933 10.7748 25.2411 8.36933 22.2982C5.98035 19.3754 4.79228 16.8379 4.79228 14.1669C4.79228 9.83899 8.17269 6.45858 12.5006 6.45858C14.959 6.45858 17.3414 7.61015 18.8903 9.42907ZM9.16764 22.6026C11.5362 25.3703 14.8987 28.4156 18.8283 31.9737L18.9694 32.1148L20.0006 33.146L21.0318 32.1148L21.1729 31.9737C25.1025 28.4156 28.465 25.3703 30.8336 22.6026C33.1934 19.8453 34.7923 17.1135 34.7923 14.1669C34.7923 10.0282 31.6394 6.87524 27.5006 6.87524C24.7263 6.87524 21.9942 8.43646 20.6471 10.8086H19.3658C18.0088 8.43975 15.2792 6.87524 12.5006 6.87524C8.36186 6.87524 5.20895 10.0282 5.20895 14.1669C5.20895 17.1135 6.80783 19.8453 9.16764 22.6026Z" stroke="#A9A9A9" stroke-width="2.91667"/>
</g>
<defs>
<clipPath id="clip0_156_98">
<rect width="40" height="40" fill="white"/>
</clipPath>
</defs>
</svg>
